<svg width="24" height="24" viewBox="0 0 24 24" fill="none" xmlns="http://www.w3.org/2000/svg">
<path fill-rule="evenodd" clip-rule="evenodd" d="M3.37511 11.635C8.74344 9.29579 12.3234 7.75412 14.1151 7.00912C19.2293 4.88162 20.2918 4.51245 20.9851 4.49995C21.1368 4.49662 21.4776 4.53412 21.6984 4.71329C21.8843 4.86495 21.9359 5.06912 21.9601 5.21245C21.9851 5.35579 22.0151 5.68162 21.9909 5.93745C21.7143 8.84912 20.5151 15.9158 19.9051 19.1775C19.6468 20.5575 19.1384 21.02 18.6468 21.0658C17.5768 21.1641 16.7643 20.3591 15.7284 19.68C14.1076 18.6175 13.1926 17.9558 11.6193 16.9191C9.80094 15.7208 10.9793 15.0625 12.0159 13.9858C12.2868 13.7041 16.9993 9.41829 17.0901 9.02912C17.1018 8.98079 17.1118 8.79995 17.0043 8.70412C16.8959 8.60829 16.7376 8.64079 16.6234 8.66662C16.4601 8.70412 13.8709 10.4158 8.85511 13.8016C8.12011 14.3058 7.45428 14.5516 6.85761 14.5391C6.20011 14.525 4.93511 14.1675 3.99511 13.8616C2.84178 13.4866 1.92511 13.2883 2.00511 12.6516C2.04678 12.32 2.50344 11.9808 3.37511 11.635Z" fill="#5C5F6A"/>
</svg>
